<svg xmlns="http://www.w3.org/2000/svg" width="1500" height="1500" viewBox="0 0 1500 1500"><path d="M 732 515.136 C 719.402 516.282, 698.555 520.318, 686.064 524.029 C 569.030 558.797, 497.035 677.548, 520.570 797 C 528.231 835.888, 545.922 873.211, 570.846 903.072 C 641.671 987.924, 760.758 1013.045, 859 963.856 C 884.787 950.944, 900.967 939.238, 921.558 918.593 C 941.417 898.682, 954.118 880.878, 966.570 855.500 C 977.849 832.513, 984.592 810.694, 988.666 784 C 991.115 767.956, 991.084 734.945, 988.604 718.500 C 976.732 639.756, 928.770 573.556, 858.576 539.027 C 842.026 530.887, 829.233 526.050, 813.741 522.079 C 786.259 515.033, 758.781 512.700, 732 515.136" stroke="none" fill="#fcbc14" fill-rule="evenodd"></path><path d="M 470.750 308.743 L 190 465.387 190 757.584 L 190 1049.781 318.190 1114.557 C 388.695 1150.184, 446.858 1179.307, 447.440 1179.274 C 448.511 1179.214, 713.913 1039.313, 715.189 1038.136 C 715.569 1037.786, 658.419 1005.684, 588.189 966.798 L 460.500 896.096 460.903 762.298 C 461.124 688.709, 461.574 617.585, 461.903 604.245 L 462.500 579.990 737.343 435.171 C 888.506 355.521, 1012.176 289.987, 1012.164 289.541 C 1012.146 288.880, 755.822 153.533, 752.500 152.431 C 751.950 152.248, 625.163 222.589, 470.750 308.743 M 915.756 395.770 C 813.440 447.195, 779.367 464.752, 780.422 465.500 C 781.197 466.050, 838.730 497.985, 908.272 536.466 L 1034.712 606.432 1035.359 699.466 C 1035.715 750.635, 1036.283 822.650, 1036.622 859.500 L 1037.237 926.500 763.484 1068.500 C 612.920 1146.600, 489.751 1210.914, 489.774 1211.420 C 489.798 1211.926, 546.628 1242.907, 616.063 1280.267 L 742.309 1348.195 745.905 1346.190 C 747.882 1345.087, 873.925 1275.477, 1026 1191.499 C 1178.075 1107.522, 1302.812 1038.518, 1303.193 1038.157 C 1304.202 1037.201, 1309.329 450.908, 1308.336 450.045 C 1306.669 448.596, 1055.120 327.001, 1053.828 327.020 C 1053.098 327.031, 990.965 357.968, 915.756 395.770" stroke="none" fill="#1c4b9c" fill-rule="evenodd"></path></svg>